<svg xmlns="http://www.w3.org/2000/svg" viewBox="0 0 1000 500" role="img" aria-label="Accurate world map">
<rect width="1000" height="500" fill="#120c08"/>
<g fill="none" stroke="#3f3020" stroke-width="1" opacity="0.55"><path d="M166.7 0V500"/><path d="M333.3 0V500"/><path d="M500.0 0V500"/><path d="M666.7 0V500"/><path d="M833.3 0V500"/><path d="M0 416.7H1000"/><path d="M0 333.3H1000"/><path d="M0 250.0H1000"/><path d="M0 166.7H1000"/><path d="M0 83.3H1000"/></g>
<path d="M52.4,471.2L45.2,468.3L57.8,470.8L52.4,471.2ZM166.0,455.8L159.4,454.6L170.2,454.1L166.0,455.8ZM150.2,454.8L148.4,453.5L155.5,455.2L150.2,454.8ZM232.8,451.4L220.0,451.4L215.7,449.7L232.8,451.4ZM0.0,294.6L0.2,295.8L0.0,296.0L0.0,294.6ZM282.8,226.9L279.0,225.2L275.3,229.9L262.1,222.4L257.0,213.1L212.5,199.2L207.0,194.6L205.5,186.7L181.2,161.7L196.0,185.6L188.4,181.3L180.4,173.0L182.9,170.6L174.2,158.2L164.9,153.9L154.4,138.0L153.6,116.2L159.5,119.2L158.8,113.9L151.0,110.0L146.0,108.8L127.6,88.5L91.3,80.9L78.6,85.7L81.6,79.8L59.9,94.5L42.3,98.9L61.9,90.1L63.8,86.3L50.1,87.0L48.6,83.4L40.7,81.9L39.6,77.6L53.4,72.9L53.4,70.0L41.8,71.0L33.0,67.6L50.9,66.3L36.8,60.1L65.1,51.8L120.8,58.6L144.1,54.2L197.6,62.8L199.5,59.3L218.2,62.1L228.7,59.5L233.0,63.1L238.2,58.1L232.0,55.3L232.2,52.2L239.2,50.7L245.8,55.0L243.3,56.4L248.5,57.0L248.5,59.8L252.2,57.6L257.4,63.3L262.4,55.9L274.4,59.3L273.9,63.6L261.8,65.1L238.2,80.8L237.0,86.3L243.6,91.4L271.5,96.8L271.9,102.0L278.0,107.8L281.7,104.0L278.3,98.1L287.4,93.0L281.9,86.7L285.2,83.7L283.0,76.9L294.9,76.5L306.7,80.4L307.5,86.2L312.1,88.3L320.6,82.4L328.3,93.5L345.1,102.0L345.3,105.1L333.2,110.4L315.6,110.5L302.5,119.9L319.3,113.2L320.9,121.6L324.5,122.9L329.1,122.5L331.9,119.4L333.9,122.4L318.4,129.0L316.2,126.5L321.0,124.2L313.5,124.6L303.8,130.3L305.7,134.3L290.2,140.3L291.5,143.3L289.1,146.6L287.9,141.3L289.6,151.2L274.1,162.7L276.7,180.0L267.5,166.8L260.0,165.6L251.1,166.2L251.6,169.0L239.3,167.5L229.5,173.9L228.1,187.7L233.6,197.7L246.1,197.6L249.2,191.7L258.2,190.2L253.0,205.9L268.3,207.6L267.2,219.2L271.6,225.0L279.0,223.3L286.6,226.0L291.9,219.2L300.7,215.5L300.8,224.8L305.7,216.2L310.6,220.7L328.1,220.2L326.7,222.4L341.3,233.4L357.5,238.3L361.2,245.2L359.2,249.4L364.9,250.7L365.0,253.4L388.9,258.0L402.1,265.2L402.4,275.0L392.6,286.3L386.3,310.9L367.6,319.1L364.2,329.7L350.5,345.5L337.7,344.2L342.3,352.5L335.5,357.6L326.8,357.9L325.7,364.0L319.1,364.1L323.7,368.2L313.1,376.5L316.7,383.7L307.9,390.9L310.7,395.4L307.1,395.3L303.2,396.9L302.8,399.5L291.8,395.2L290.0,385.2L294.1,380.4L289.9,379.6L298.0,367.7L293.5,370.1L295.6,353.2L301.6,340.1L305.1,304.9L301.5,298.2L288.9,290.7L274.3,267.0L278.4,257.4L275.2,252.9L285.8,239.3L282.8,226.9ZM67.5,197.5L67.1,193.7L70.0,195.8L67.5,197.5ZM65.0,191.6L65.5,192.9L64.7,191.9L65.0,191.6ZM63.2,191.1L64.5,191.5L63.0,191.4L63.2,191.1ZM60.8,190.8L62.1,190.8L61.9,190.9L60.8,190.8ZM57.0,189.2L57.3,188.3L57.4,188.9L57.0,189.2ZM143.4,109.0L150.7,110.3L156.9,115.2L151.0,114.4L143.4,109.0ZM129.9,100.4L134.0,99.7L135.6,105.1L132.8,103.8L129.9,100.4ZM70.4,90.4L77.4,90.0L70.8,91.7L70.4,90.4ZM39.8,82.5L38.4,84.0L34.8,82.7L39.8,82.5ZM276.8,77.7L279.8,77.3L278.7,78.8L276.8,77.7ZM272.5,75.8L269.3,77.3L266.7,76.5L268.7,75.2L272.5,75.8ZM29.1,75.1L23.0,72.8L31.4,74.2L29.1,75.1ZM277.5,73.0L262.4,74.9L257.7,73.5L261.4,67.4L277.5,73.0ZM20.7,70.9L3.6,66.4L0.0,69.5L0.0,58.4L15.7,65.7L28.1,66.7L20.7,68.2L20.7,70.9ZM227.2,55.2L234.3,58.0L222.8,57.2L227.2,55.2ZM219.5,55.5L185.2,59.6L174.1,55.7L187.7,54.5L168.3,51.2L180.0,46.3L194.7,47.3L199.5,51.0L201.3,46.6L219.5,55.5ZM3.6,53.1L0.4,51.2L6.7,52.0L3.6,53.1ZM231.3,50.9L224.1,51.8L215.3,47.7L229.5,45.1L227.6,47.2L231.3,50.9ZM158.1,53.1L150.2,50.4L155.7,45.3L153.0,43.6L179.1,45.9L158.1,53.1ZM233.2,47.4L237.5,44.1L248.6,44.8L238.1,49.9L233.2,47.4ZM207.3,47.9L202.9,45.9L209.7,46.1L207.3,47.9ZM238.5,42.8L234.4,42.6L231.1,41.9L236.5,39.9L238.5,42.8ZM183.7,42.4L189.5,41.2L173.0,41.0L179.4,37.6L197.0,40.4L193.1,37.7L195.6,36.7L206.4,40.3L183.7,42.4ZM231.3,35.7L252.3,40.0L274.6,39.7L278.2,41.9L243.3,42.1L231.3,35.7ZM215.1,38.0L226.4,36.9L228.6,39.6L222.8,42.0L215.1,38.0ZM177.2,34.3L162.5,39.2L158.7,38.6L177.2,34.3ZM238.1,34.7L232.1,33.8L239.7,34.3L238.1,34.7ZM193.9,34.2L184.6,34.1L194.8,33.3L193.9,34.2ZM234.6,32.2L229.7,33.7L226.0,30.9L231.2,31.2L234.6,32.2ZM210.5,31.5L207.0,29.7L223.1,33.6L207.8,32.3L210.5,31.5ZM192.0,32.2L187.4,32.2L195.4,31.7L192.0,32.2ZM243.3,24.3L261.6,29.6L247.8,32.7L231.4,27.3L243.3,24.3ZM334.5,472.3L320.9,474.8L315.9,472.9L334.5,472.3ZM379.6,472.3L359.8,475.1L349.5,474.0L370.4,466.2L378.0,468.0L379.6,472.3ZM304.9,441.3L308.9,450.5L291.8,450.2L299.8,447.8L304.9,441.3ZM309.3,404.4L292.6,396.8L302.5,400.2L307.4,395.9L319.3,401.9L309.3,404.4ZM330.0,394.0L337.4,391.9L339.6,393.2L335.0,395.0L330.0,394.0ZM475.0,236.6L453.9,216.2L451.0,209.1L455.1,199.7L452.6,191.7L459.9,177.1L473.4,166.9L474.2,159.5L483.5,150.7L494.0,152.3L526.4,146.3L530.8,147.5L528.7,156.2L553.0,165.9L559.8,158.8L580.3,164.2L593.8,164.0L600.4,148.2L576.8,148.2L572.7,140.4L593.1,133.3L615.4,134.6L615.1,131.5L601.9,124.3L608.7,118.7L597.1,121.5L600.9,124.7L594.1,126.8L590.2,124.1L592.5,122.0L585.4,120.6L576.9,131.7L580.0,136.0L562.9,138.2L566.8,145.4L562.5,148.9L553.9,138.2L554.3,134.1L536.5,123.0L535.0,127.5L551.3,138.4L546.9,137.7L544.7,144.5L542.8,138.8L524.7,126.8L508.6,130.3L494.0,148.1L485.1,150.1L475.3,147.6L473.9,130.5L496.2,127.7L496.7,122.2L487.2,114.8L495.5,114.9L494.6,111.7L503.7,110.8L513.1,102.5L522.6,101.3L523.7,91.4L529.4,89.6L526.8,95.9L530.4,100.0L554.6,98.8L559.1,96.7L559.9,90.5L567.0,91.6L564.8,85.6L580.9,83.3L559.2,81.3L559.8,74.5L570.6,69.1L566.4,66.6L549.6,75.7L547.6,79.6L552.2,83.1L544.1,94.2L536.0,96.2L528.8,84.8L515.7,87.3L513.9,77.9L553.3,56.1L578.2,52.3L614.1,62.6L606.6,66.7L592.2,64.9L602.8,72.6L603.3,69.0L610.0,70.8L616.9,65.3L622.1,66.5L620.7,59.5L628.5,60.4L628.7,64.8L649.2,58.7L666.5,60.3L669.7,58.5L668.2,56.0L690.3,60.9L692.2,59.4L685.9,57.1L685.3,52.7L694.3,47.1L702.2,49.4L699.6,51.6L704.6,60.0L698.0,65.8L701.2,66.2L708.5,61.8L703.1,51.5L707.4,47.7L712.1,52.4L710.8,50.3L715.5,49.3L726.4,50.7L723.6,45.4L789.9,34.2L817.0,39.3L803.9,43.9L852.7,45.7L864.7,53.4L867.4,50.5L888.5,51.4L886.5,48.8L890.2,47.6L941.7,53.1L947.1,57.1L971.0,59.2L974.5,58.3L973.5,55.3L1000.0,58.4L1000.0,69.5L992.8,70.5L997.9,76.9L982.4,78.7L973.1,83.7L954.3,83.7L950.0,88.2L953.3,90.0L950.3,97.6L935.5,108.3L933.1,92.3L956.9,76.2L944.8,81.8L942.5,78.4L935.3,79.3L928.4,84.0L930.7,85.7L895.0,86.0L875.4,98.0L888.6,99.5L892.7,104.9L883.9,121.4L854.3,139.6L859.6,147.8L858.6,152.5L851.3,154.5L852.4,147.5L846.4,144.1L848.1,140.1L836.3,142.0L837.9,136.3L827.9,141.1L830.3,146.0L839.9,146.0L831.0,153.0L838.6,162.0L838.0,171.6L821.9,186.7L807.7,190.6L806.8,193.5L801.5,189.7L794.1,195.1L803.7,212.7L803.3,217.6L792.1,226.1L791.9,222.4L778.0,212.8L775.6,224.3L786.0,234.7L789.5,246.4L781.6,242.3L778.0,232.0L773.2,228.3L774.3,218.2L769.9,203.0L761.6,205.5L762.0,199.4L753.9,186.8L741.6,190.3L723.1,205.8L721.8,221.2L715.4,227.9L704.3,205.6L701.8,190.7L695.8,192.0L684.4,179.4L659.4,178.5L656.9,174.6L652.0,176.4L643.1,172.6L639.2,166.3L633.3,166.7L643.9,183.3L650.0,183.0L656.6,176.7L657.9,182.7L666.1,188.0L653.5,202.1L620.8,214.9L618.5,203.4L596.2,172.1L597.1,168.5L597.0,168.1L596.7,167.3L594.2,173.2L590.1,167.1L602.4,188.9L604.1,198.3L620.3,215.6L618.7,217.4L623.9,221.0L642.0,216.6L641.8,220.4L632.6,238.3L608.9,263.0L612.4,279.9L611.4,294.7L596.6,305.0L598.5,317.0L590.5,321.5L590.2,328.6L583.5,336.5L571.6,344.3L551.0,344.8L550.6,337.9L542.3,325.3L532.3,296.3L537.9,283.4L536.8,273.8L524.4,253.1L527.2,241.5L523.6,236.7L516.4,238.2L512.0,232.6L494.5,236.9L475.0,236.6ZM640.0,138.2L635.7,142.2L636.7,145.6L649.5,147.3L646.4,138.8L652.0,136.2L649.2,133.0L646.7,135.7L639.7,126.1L647.3,124.3L647.3,119.9L636.4,121.1L629.7,126.1L640.0,138.2ZM328.7,220.1L330.7,221.9L327.9,222.0L328.7,220.1ZM282.7,198.7L286.4,198.9L288.3,200.3L285.5,200.8L282.7,198.7ZM313.6,198.6L317.8,199.4L313.4,200.1L313.6,198.6ZM308.9,197.3L301.7,201.1L293.2,199.0L299.1,198.1L296.7,194.7L308.9,197.3ZM276.1,185.8L293.6,194.3L284.0,194.8L285.9,193.3L281.3,190.0L272.8,187.1L264.0,189.2L276.1,185.8ZM282.2,181.7L284.6,182.4L283.9,184.1L282.2,181.7ZM286.1,176.1L285.2,176.3L283.9,174.9L286.1,176.1ZM283.8,175.4L280.8,176.6L280.6,175.6L283.8,175.4ZM321.8,121.1L323.2,120.7L327.7,121.0L325.3,122.3L321.8,121.1ZM351.5,113.2L352.6,120.4L349.3,117.4L346.1,119.8L334.9,116.9L344.8,106.6L342.2,111.6L351.5,113.2ZM321.7,111.2L328.3,113.6L320.8,111.5L321.7,111.2ZM473.1,100.3L484.3,98.5L481.1,104.8L472.3,106.1L473.1,100.3ZM439.5,71.1L432.4,67.7L459.7,65.4L462.2,69.1L448.2,73.6L436.8,72.3L439.5,71.1ZM291.1,62.7L286.1,63.6L285.5,62.3L289.2,60.3L291.1,62.7ZM283.8,47.9L314.0,57.8L308.9,59.1L328.2,64.3L322.4,69.4L311.1,65.9L320.4,73.9L308.9,72.9L316.2,78.0L292.1,70.3L281.8,70.6L294.6,68.2L298.2,63.1L296.4,60.9L280.7,55.1L253.7,54.4L249.4,49.3L254.4,45.7L261.6,45.0L261.7,48.5L271.3,45.1L275.7,49.8L283.8,47.9ZM442.1,20.2L411.4,21.7L466.1,24.2L444.3,27.3L450.7,27.4L445.3,31.2L448.7,36.2L439.8,37.1L444.9,38.6L442.6,41.2L446.2,43.6L434.5,46.4L438.1,49.5L431.1,49.1L439.6,53.7L429.0,51.6L426.8,54.9L437.9,55.2L389.4,68.2L381.1,75.9L379.5,83.1L365.9,80.9L356.6,73.3L350.1,63.4L358.7,55.8L348.1,56.6L349.0,53.3L357.2,54.0L344.9,51.0L348.0,48.4L337.3,40.2L309.7,38.7L301.7,36.1L314.5,35.1L296.4,33.2L317.5,29.5L311.0,27.5L332.5,22.1L376.3,23.2L370.1,20.5L402.5,17.7L442.1,20.2ZM288.2,47.7L278.4,47.8L275.5,45.3L288.2,47.7ZM245.6,22.5L297.7,18.8L328.2,20.5L286.4,29.7L290.6,31.9L276.2,38.4L251.4,37.6L256.2,35.6L254.8,33.6L264.0,34.6L255.7,32.3L263.6,29.6L258.5,27.1L272.6,26.5L245.6,22.5ZM0.0,485.3L102.5,486.2L73.4,482.5L75.4,477.9L64.3,475.3L93.3,473.2L68.5,469.6L60.1,463.6L79.6,465.0L94.2,462.4L93.9,459.4L97.5,458.9L167.5,456.9L183.5,454.8L201.2,458.8L221.9,458.0L212.0,451.7L288.3,455.5L308.5,452.8L313.5,450.1L309.6,443.7L313.2,435.8L325.0,429.6L339.4,425.8L327.7,430.0L327.4,433.9L317.6,438.8L328.3,446.4L331.0,454.7L303.9,462.9L285.4,463.1L295.4,466.4L283.3,469.9L338.3,481.2L420.7,473.2L417.5,470.2L401.0,470.7L400.6,467.6L451.3,458.7L456.4,456.9L454.3,455.2L457.1,453.2L480.9,447.0L499.4,449.0L521.5,444.1L530.0,446.8L537.3,444.4L575.3,445.7L594.1,440.3L607.4,443.8L651.5,432.8L670.6,438.8L691.4,438.7L693.5,442.3L688.4,445.3L691.9,446.3L688.7,449.6L694.1,450.7L705.2,444.1L744.4,433.9L766.1,437.2L777.0,436.8L785.6,432.1L794.9,435.9L815.6,433.0L832.9,436.9L874.3,433.9L875.2,431.4L881.8,436.0L904.1,435.9L913.4,440.0L975.6,449.2L954.4,461.8L957.6,467.2L963.9,468.8L949.4,469.9L943.9,474.8L970.6,482.8L1000.0,485.3L1000.0,500.0L0.0,500.0L0.0,485.3ZM534.5,145.5L543.1,143.8L541.9,148.3L534.5,145.5ZM522.7,136.2L525.6,135.5L526.9,141.2L523.4,141.2L522.7,136.2ZM526.1,130.5L525.6,135.1L523.7,132.6L526.1,130.5ZM491.8,100.0L483.9,89.4L491.7,87.1L488.7,90.1L494.6,89.8L491.3,94.5L504.7,103.5L504.0,107.5L484.0,110.7L490.5,107.1L485.4,105.6L491.8,100.0ZM530.7,96.2L534.4,94.1L535.3,95.5L533.6,97.8L530.7,96.2ZM544.2,36.7L538.2,35.1L540.7,34.1L529.0,28.7L547.2,27.6L559.8,30.7L544.2,36.7ZM591.6,154.0L591.5,151.7L596.0,150.9L591.6,154.0ZM565.8,150.8L572.7,152.8L565.3,152.0L565.8,150.8ZM562.5,34.9L557.8,32.6L568.7,33.7L562.5,34.9ZM548.2,26.9L563.7,26.0L576.1,27.6L548.2,26.9ZM691.5,385.1L695.9,386.3L696.0,386.8L691.0,388.3L691.5,385.1ZM640.2,292.3L630.8,319.3L622.3,319.4L620.2,311.3L623.5,295.0L632.5,290.5L636.7,283.4L640.2,292.3ZM821.4,273.3L800.8,271.6L792.7,269.0L794.6,266.4L807.7,268.0L821.4,273.3ZM793.9,266.3L781.7,257.8L764.7,234.8L770.8,235.4L788.4,249.7L787.3,252.0L794.7,258.5L793.9,266.3ZM827.3,247.8L822.6,261.1L819.1,261.4L806.2,258.2L802.6,248.8L804.6,244.4L808.8,244.9L825.4,230.8L831.1,235.0L825.9,241.0L830.5,247.5L827.3,247.8ZM722.6,222.7L726.8,232.0L723.2,233.4L722.6,222.7ZM806.5,198.1L801.8,198.6L801.7,196.2L807.7,194.2L806.5,198.1ZM691.3,37.4L662.4,43.6L653.9,49.0L659.8,53.6L643.3,51.5L654.5,41.4L691.3,37.4ZM791.9,32.5L776.2,33.6L783.6,29.6L791.9,32.5ZM771.5,31.2L753.3,26.8L766.5,24.3L778.3,28.4L771.5,31.2ZM643.1,25.8L632.2,27.7L624.6,26.1L643.1,25.8ZM978.0,363.8L984.0,366.0L980.8,371.8L973.9,377.5L963.0,378.4L978.0,363.8ZM904.0,368.6L902.1,363.1L911.9,363.5L910.9,370.0L904.0,368.6ZM982.9,358.7L985.3,353.8L979.5,345.9L988.8,354.3L995.9,354.7L986.8,365.8L982.9,358.7ZM864.8,337.5L827.8,347.4L819.5,345.0L821.7,339.5L814.8,322.5L817.3,323.1L815.9,312.4L835.7,304.7L849.1,289.5L860.1,291.6L867.7,280.9L879.1,282.9L876.4,291.7L889.5,299.2L895.9,279.6L906.6,302.7L918.7,312.2L926.6,328.1L916.7,354.0L906.4,358.4L902.9,355.3L898.9,357.8L890.7,355.6L883.9,345.5L880.1,347.9L882.8,341.4L877.7,346.9L873.0,340.6L864.8,337.5ZM955.6,305.8L958.4,306.8L964.2,311.6L959.7,310.2L955.6,305.8ZM993.5,298.3L996.0,300.4L992.7,300.5L993.5,298.3ZM1000.0,294.6L996.5,297.3L996.1,296.2L1000.0,294.6ZM964.5,294.1L966.2,295.7L965.3,296.1L964.5,294.1ZM963.3,293.5L964.2,291.5L964.6,293.7L963.3,293.5ZM949.2,280.1L950.3,279.1L951.1,280.1L949.2,280.1ZM833.1,276.0L835.3,278.4L830.5,276.5L833.1,276.0ZM844.4,275.8L853.7,273.3L843.3,278.8L844.4,275.8ZM946.8,277.4L943.4,276.8L943.6,275.7L946.8,277.4ZM946.6,274.8L946.1,273.1L948.7,277.2L946.6,274.8ZM825.2,273.5L830.9,274.2L824.3,275.1L825.2,273.5ZM833.1,274.5L838.9,273.5L841.4,272.5L841.0,274.0L833.1,274.5ZM939.9,270.3L944.2,273.7L939.5,270.6L939.9,270.3ZM937.6,270.4L934.7,268.8L934.8,268.3L937.6,270.4ZM908.9,270.5L918.6,279.4L910.9,278.1L902.1,271.2L896.2,275.9L882.3,273.4L885.2,270.3L883.1,265.0L869.4,261.4L866.6,257.8L871.4,256.2L862.6,252.6L872.2,252.2L876.3,259.4L884.2,254.7L901.6,260.7L910.1,266.9L908.9,270.5ZM872.5,267.1L874.2,267.3L872.8,269.2L872.5,267.1ZM929.2,264.3L933.4,268.2L933.0,268.9L931.0,268.2L929.2,264.3ZM912.0,266.0L920.9,261.6L923.2,262.0L917.3,267.5L912.0,266.0ZM918.5,257.6L922.9,259.0L925.4,262.5L924.5,263.2L918.5,257.6ZM852.8,258.7L852.4,260.5L850.0,258.8L852.8,258.7ZM855.3,259.4L862.4,258.6L863.4,260.7L855.3,259.4ZM833.8,249.3L835.9,253.9L842.6,251.7L837.5,255.3L842.1,263.0L840.6,265.7L836.0,257.3L834.5,265.4L831.6,264.9L829.9,257.8L832.8,249.6L835.8,246.4L847.9,246.1L833.8,249.3ZM854.7,250.7L853.9,247.2L855.4,244.0L857.3,249.3L854.7,250.7ZM848.3,234.5L843.4,228.2L838.7,230.0L850.6,224.2L850.5,232.6L849.5,229.7L848.3,234.5ZM832.5,220.7L825.5,226.8L832.0,218.4L832.5,220.7ZM844.4,221.4L839.9,223.0L844.7,218.8L844.4,221.4ZM838.9,221.0L838.6,217.0L842.0,217.8L838.9,221.0ZM846.7,221.8L847.9,215.2L849.4,219.3L846.7,221.8ZM836.6,212.7L836.8,216.1L834.2,212.6L836.6,212.7ZM837.5,208.0L844.7,215.2L835.1,211.5L835.3,198.6L839.6,198.7L837.5,208.0ZM837.5,179.7L836.6,186.7L835.4,189.0L833.6,184.6L837.5,179.7ZM869.5,159.2L869.2,155.4L874.0,155.1L872.8,157.8L869.5,159.2ZM889.6,152.4L875.2,153.9L863.9,155.9L866.7,157.9L863.0,163.8L859.5,157.5L868.4,151.6L876.9,151.3L879.8,146.4L887.3,143.8L888.6,137.3L892.7,135.1L894.1,141.2L889.6,152.4ZM888.8,134.5L894.4,123.5L903.7,126.7L904.3,129.8L897.7,133.3L893.4,131.4L888.8,134.5ZM898.6,121.8L894.2,120.0L893.6,101.9L896.3,99.0L901.8,114.0L897.7,113.0L896.0,117.1L898.6,121.8ZM996.5,52.5L1000.0,51.3L1000.0,53.2L996.5,52.5ZM888.5,46.2L894.6,44.8L898.9,46.6L888.5,46.2ZM915.5,42.5L905.9,41.2L918.7,41.4L915.5,42.5ZM882.0,39.0L903.0,40.1L880.5,40.9L882.0,39.0Z" fill="#302217" stroke="#6d5534" stroke-width="1.35" stroke-linejoin="round" stroke-linecap="round" fill-rule="evenodd"/>
</svg>